<svg width="187" height="175" viewBox="0 0 187 175" fill="none" xmlns="http://www.w3.org/2000/svg">
<g clip-path="url(#clip0_3_776)">
<path d="M172.863 133.88L181.252 135.192C184.092 131.752 186.05 127.67 186.955 123.301C180.821 128.325 171.492 125.655 164.054 128.398C161.741 129.272 159.654 130.655 157.947 132.445C156.241 134.235 154.958 136.386 154.196 138.74L150.096 143.153C153.807 144.623 157.793 145.271 161.778 145.051C165.763 144.832 169.654 143.75 173.181 141.881C175.15 140.813 176.976 139.502 178.617 137.977C175.682 136.128 172.863 133.88 172.863 133.88Z" fill="#6F6E80"/>
<path d="M169.885 120.456L177.978 117.886C178.987 113.54 178.92 109.013 177.783 104.699C174.532 111.933 164.992 113.706 159.557 119.48C157.876 121.294 156.624 123.463 155.895 125.827C155.165 128.191 154.977 130.689 155.343 133.135L153.641 138.915C157.618 138.575 161.474 137.376 164.943 135.401C168.412 133.426 171.412 130.722 173.736 127.475C175.022 125.641 176.072 123.652 176.861 121.555C173.41 121.21 169.885 120.456 169.885 120.456Z" fill="#6F6E80"/>
<path d="M187 145.827C187 145.87 186.992 145.913 186.975 145.953C186.959 145.993 186.934 146.029 186.904 146.06C186.873 146.091 186.837 146.115 186.797 146.131C186.757 146.148 186.714 146.156 186.671 146.156H0.329348C0.242 146.156 0.158228 146.121 0.0964631 146.06C0.0346985 145.998 0 145.914 0 145.827C0 145.739 0.0346985 145.655 0.0964631 145.594C0.158228 145.532 0.242 145.497 0.329348 145.497H186.671C186.714 145.497 186.757 145.505 186.797 145.522C186.837 145.538 186.873 145.563 186.904 145.593C186.934 145.624 186.959 145.66 186.975 145.7C186.992 145.74 187 145.783 187 145.827Z" fill="#CCCCCC"/>
<path d="M77.2161 131.778C110.079 131.778 136.72 105.122 136.72 72.2395C136.72 39.3575 110.079 12.7013 77.2161 12.7013C44.353 12.7013 17.7122 39.3575 17.7122 72.2395C17.7122 105.122 44.353 131.778 77.2161 131.778Z" fill="#3F3D56" fill-opacity="0.75"/>
<path d="M128.417 72.2395C128.423 80.2334 126.557 88.1174 122.968 95.2593C119.379 102.401 114.168 108.602 107.751 113.365C107.322 113.686 106.885 113.999 106.445 114.304C97.8648 120.272 87.6655 123.47 77.2161 123.47C66.7667 123.47 56.5673 120.272 47.9872 114.304C47.5471 113.999 47.1099 113.686 46.6809 113.365C40.269 108.598 35.0607 102.396 31.4723 95.2552C27.8839 88.1143 26.015 80.2323 26.015 72.2395C26.015 64.2467 27.8839 56.3648 31.4723 49.2238C35.0607 42.0828 40.269 35.8809 46.6809 31.1138C47.1099 30.7926 47.5471 30.4797 47.9872 30.1751C56.5673 24.2074 66.7667 21.0089 77.2161 21.0089C87.6655 21.0089 97.8648 24.2074 106.445 30.1751C106.885 30.4797 107.322 30.7926 107.751 31.1138C114.168 35.8767 119.379 42.0778 122.968 49.2197C126.557 56.3616 128.423 64.2456 128.417 72.2395Z" fill="white"/>
<path d="M77.2161 119.039C103.048 119.039 123.989 98.0863 123.989 72.2395C123.989 46.3927 103.048 25.4397 77.2161 25.4397C51.3842 25.4397 30.4432 46.3927 30.4432 72.2395C30.4432 98.0863 51.3842 119.039 77.2161 119.039Z" fill="#9B51E0"/>
<path opacity="0.2" d="M77.3381 25.5705C76.629 25.5705 75.9244 25.5891 75.223 25.6203C87.0446 26.6597 98.0293 32.1565 105.952 40.997C113.874 49.8376 118.141 61.3608 117.89 73.2321C117.638 85.1034 112.885 96.435 104.595 104.931C96.3053 113.427 85.0974 118.453 73.2424 118.99C74.5924 119.107 75.9577 119.17 77.3381 119.17C89.743 119.17 101.64 114.239 110.411 105.463C119.183 96.6861 124.111 84.7824 124.111 72.3703C124.111 59.9583 119.183 48.0545 110.411 39.2779C101.64 30.5012 89.743 25.5705 77.3381 25.5705V25.5705Z" fill="black"/>
<path d="M77.3544 22.1166C76.9509 22.1173 76.5642 22.278 76.2789 22.5635C75.9935 22.849 75.833 23.236 75.8322 23.6397V30.2858C75.8322 30.6898 75.9926 31.0772 76.2781 31.3628C76.5635 31.6484 76.9507 31.8089 77.3544 31.8089C77.7581 31.8089 78.1453 31.6484 78.4308 31.3628C78.7163 31.0772 78.8766 30.6898 78.8766 30.2858V23.6397C78.8759 23.236 78.7153 22.849 78.43 22.5635C78.1447 22.278 77.7579 22.1173 77.3544 22.1166Z" fill="white"/>
<path d="M107.751 31.1138C107.322 30.7926 106.885 30.4797 106.445 30.1751C106.181 30.1578 105.917 30.2098 105.679 30.3259C105.441 30.442 105.238 30.6181 105.089 30.8369L101.35 36.3283C101.123 36.6621 101.037 37.0725 101.112 37.4693C101.188 37.866 101.417 38.2166 101.751 38.4439C102.085 38.6712 102.495 38.7566 102.891 38.6813C103.288 38.606 103.638 38.3762 103.866 38.0424L107.605 32.551C107.747 32.3427 107.835 32.1021 107.86 31.8511C107.886 31.6001 107.849 31.3466 107.751 31.1138Z" fill="white"/>
<path d="M124.739 56.1531C124.664 55.968 124.553 55.7994 124.413 55.6572C124.272 55.515 124.105 55.4018 123.921 55.3241C123.737 55.2464 123.54 55.2058 123.34 55.2046C123.14 55.2033 122.942 55.2414 122.757 55.3168L116.602 57.8174C116.228 57.9697 115.931 58.2642 115.774 58.6361C115.617 59.008 115.614 59.427 115.766 59.801C115.918 60.175 116.212 60.4734 116.584 60.6305C116.955 60.7877 117.374 60.7908 117.748 60.6392L123.903 58.1386C124.277 57.9856 124.574 57.6907 124.731 57.3186C124.887 56.9464 124.89 56.5274 124.739 56.1531Z" fill="white"/>
<path d="M53.0824 36.3283L49.3433 30.8369C49.1943 30.6181 48.9909 30.442 48.753 30.3259C48.5152 30.2098 48.2512 30.1578 47.9872 30.1751C47.5471 30.4797 47.1099 30.7926 46.6809 31.1138C46.5836 31.3466 46.5461 31.6001 46.5717 31.8511C46.5973 32.1021 46.6853 32.3427 46.8276 32.551L50.5666 38.0424C50.7938 38.3762 51.1442 38.606 51.5407 38.6813C51.9373 38.7567 52.3475 38.6713 52.6811 38.4439C53.0147 38.2166 53.2444 37.866 53.3197 37.4693C53.3949 37.0725 53.3096 36.6621 53.0824 36.3283Z" fill="white"/>
<path d="M37.83 57.8174L31.6748 55.3168C31.3008 55.1649 30.8819 55.1678 30.5101 55.3249C30.1382 55.482 29.844 55.7804 29.6921 56.1546C29.5402 56.5287 29.543 56.948 29.6999 57.32C29.8569 57.6921 30.1551 57.9865 30.529 58.1386L36.6842 60.6392C37.0581 60.7908 37.4769 60.7877 37.8485 60.6305C38.22 60.4733 38.5141 60.175 38.6659 59.801C38.8178 59.427 38.815 59.008 38.6583 58.6361C38.5015 58.2641 38.2036 57.9697 37.83 57.8174V57.8174Z" fill="white"/>
<path d="M77.3544 112.67C76.9509 112.671 76.5642 112.832 76.2789 113.117C75.9935 113.402 75.833 113.789 75.8322 114.193V120.839C75.8322 121.243 75.9926 121.631 76.2781 121.916C76.5635 122.202 76.9507 122.362 77.3544 122.362C77.7581 122.362 78.1453 122.202 78.4308 121.916C78.7163 121.631 78.8766 121.243 78.8766 120.839V114.193C78.8759 113.789 78.7153 113.402 78.43 113.117C78.1447 112.832 77.7579 112.671 77.3544 112.67Z" fill="white"/>
<path d="M107.605 111.928L103.865 106.437C103.753 106.271 103.609 106.13 103.442 106.02C103.275 105.911 103.088 105.835 102.891 105.798C102.695 105.76 102.493 105.762 102.298 105.803C102.102 105.844 101.916 105.923 101.751 106.035C101.586 106.148 101.444 106.292 101.335 106.459C101.225 106.626 101.15 106.813 101.112 107.01C101.075 107.206 101.077 107.408 101.118 107.604C101.158 107.8 101.237 107.985 101.35 108.151L105.089 113.642C105.238 113.861 105.441 114.037 105.679 114.153C105.917 114.269 106.181 114.321 106.445 114.304C106.885 113.999 107.322 113.686 107.751 113.365C107.848 113.132 107.886 112.879 107.86 112.628C107.835 112.377 107.747 112.136 107.605 111.928Z" fill="white"/>
<path d="M123.903 86.3404L117.748 83.8398C117.374 83.6878 116.955 83.6907 116.583 83.8478C116.211 84.005 115.917 84.3034 115.765 84.6776C115.613 85.0517 115.616 85.4709 115.773 85.843C115.93 86.2151 116.228 86.5095 116.602 86.6616L122.757 89.1622C123.131 89.3138 123.55 89.3107 123.922 89.1535C124.293 88.9963 124.587 88.6979 124.739 88.324C124.891 87.95 124.888 87.531 124.731 87.1591C124.575 86.7871 124.277 86.4926 123.903 86.3404V86.3404Z" fill="white"/>
<path d="M52.6811 106.035C52.3474 105.808 51.9373 105.723 51.5408 105.798C51.1442 105.873 50.7939 106.103 50.5666 106.437L46.8276 111.928C46.6853 112.136 46.5973 112.377 46.5717 112.628C46.5461 112.879 46.5836 113.132 46.6809 113.365C47.1099 113.686 47.5471 113.999 47.9872 114.304C48.2512 114.321 48.5152 114.269 48.753 114.153C48.9909 114.037 49.1943 113.861 49.3433 113.642L53.0824 108.151C53.1949 107.985 53.2737 107.8 53.3145 107.604C53.3552 107.408 53.357 107.206 53.3197 107.01C53.2824 106.813 53.2068 106.626 53.0973 106.459C52.9877 106.292 52.8463 106.148 52.6811 106.035Z" fill="white"/>
<path d="M38.6658 84.6761C38.5907 84.4909 38.4798 84.3224 38.3395 84.1802C38.1992 84.0379 38.0322 83.9247 37.8482 83.8471C37.6642 83.7694 37.4667 83.7288 37.2669 83.7275C37.0672 83.7263 36.8692 83.7644 36.6842 83.8398L30.529 86.3404C30.1554 86.4926 29.8575 86.7871 29.7007 87.1591C29.544 87.531 29.5413 87.95 29.6931 88.324C29.845 88.698 30.139 88.9963 30.5106 89.1535C30.8822 89.3107 31.3009 89.3138 31.6748 89.1622L37.83 86.6616C38.2035 86.5085 38.5011 86.2137 38.6577 85.8415C38.8144 85.4694 38.8173 85.0503 38.6658 84.6761Z" fill="white"/>
<path d="M79.3295 71.4838C79.47 72.3163 79.2748 73.1706 78.7866 73.8593C78.2985 74.548 77.5572 75.0148 76.7255 75.1573L49.714 79.7546C49.302 79.8247 48.8801 79.8129 48.4726 79.72C48.0651 79.627 47.6799 79.4546 47.339 79.2126C46.9981 78.9707 46.7081 78.6639 46.4857 78.3099C46.2632 77.9558 46.1127 77.5614 46.0426 77.1491C45.9725 76.7368 45.9843 76.3147 46.0772 75.907C46.1701 75.4993 46.3424 75.1138 46.5842 74.7727C46.826 74.4316 47.1326 74.1415 47.4865 73.9189C47.8403 73.6963 48.2345 73.5457 48.6466 73.4756L75.6581 68.8783C76.4901 68.7377 77.3439 68.933 78.0322 69.4214C78.7205 69.9099 79.187 70.6516 79.3295 71.4838Z" fill="#3F3D56"/>
<path d="M107.758 101.428C107.37 101.818 106.843 102.039 106.293 102.041C105.743 102.043 105.214 101.827 104.823 101.439L75.7454 72.5731C75.3552 72.185 75.1349 71.6578 75.133 71.1073C75.1311 70.5568 75.3477 70.0281 75.7352 69.6373C76.1227 69.2465 76.6494 69.0256 77.1996 69.0232C77.7497 69.0208 78.2784 69.237 78.6693 69.6244L107.747 98.4904C108.137 98.8787 108.357 99.406 108.36 99.9566C108.362 100.507 108.146 101.036 107.758 101.428Z" fill="#3F3D56"/>
<path d="M77.2161 75.8395C79.2031 75.8395 80.814 74.2277 80.814 72.2395C80.814 70.2513 79.2031 68.6395 77.2161 68.6395C75.229 68.6395 73.6182 70.2513 73.6182 72.2395C73.6182 74.2277 75.229 75.8395 77.2161 75.8395Z" fill="#CCCCCC"/>
<path d="M52.4337 9.81543C46.911 18.5032 38.4845 24.2687 28.0925 28.0564C27.8872 28.2103 27.6535 28.3222 27.405 28.3857C27.1564 28.4493 26.8977 28.4632 26.6438 28.4267C26.3898 28.3903 26.1456 28.3041 25.9249 28.1732C25.7042 28.0422 25.5115 27.8691 25.3577 27.6636C19.7129 20.1223 20.9875 9.34437 28.4374 3.58196C30.2386 2.19123 32.2979 1.17234 34.4958 0.584436C36.6937 -0.00346293 38.9864 -0.148661 41.2409 0.157277C43.4953 0.463214 45.6666 1.21419 47.6286 2.36661C49.5906 3.51902 51.3043 5.04993 52.6701 6.87043L52.8263 7.07902C52.9801 7.28448 53.0919 7.51825 53.1554 7.76696C53.2189 8.01568 53.2328 8.27447 53.1964 8.52857C53.1599 8.78267 53.0738 9.0271 52.943 9.2479C52.8121 9.4687 52.639 9.66155 52.4337 9.81543Z" fill="#9B51E0"/>
<path d="M101.762 6.87042C103.128 5.04991 104.842 3.519 106.804 2.36659C108.766 1.21417 110.937 0.4632 113.191 0.157263C115.446 -0.148675 117.738 -0.00348127 119.936 0.584418C122.134 1.17232 124.194 2.19121 125.995 3.58194C133.445 9.34435 134.719 20.1223 129.074 27.6636C128.921 27.8691 128.728 28.0422 128.507 28.1732C128.287 28.3041 128.042 28.3903 127.788 28.4267C127.534 28.4632 127.276 28.4493 127.027 28.3857C126.779 28.3222 126.545 28.2103 126.34 28.0564C116.692 24.3608 108.781 17.9655 101.998 9.81541C101.584 9.50462 101.309 9.04172 101.236 8.52855C101.162 8.01537 101.295 7.49395 101.606 7.07899L101.762 6.87042Z" fill="#9B51E0"/>
<path d="M99.3413 123.821C98.9896 124.019 98.7305 124.348 98.6208 124.737C98.5112 125.125 98.5599 125.542 98.7563 125.894L107.541 141.602C107.738 141.954 108.067 142.214 108.456 142.324C108.844 142.433 109.261 142.384 109.613 142.187C109.965 141.99 110.225 141.661 110.334 141.272C110.444 140.883 110.395 140.467 110.198 140.114L101.413 124.407C101.215 124.055 100.886 123.795 100.498 123.686C100.11 123.576 99.6938 123.625 99.3413 123.821Z" fill="#E6E6E6"/>
<path d="M53.0191 124.407L44.2341 140.114C44.0371 140.467 43.9881 140.883 44.0978 141.272C44.2075 141.661 44.4671 141.99 44.8193 142.187C45.1716 142.384 45.5877 142.433 45.9762 142.324C46.3646 142.214 46.6936 141.954 46.8908 141.602L55.6758 125.894C55.7735 125.72 55.8358 125.528 55.8593 125.329C55.8828 125.13 55.8669 124.929 55.8126 124.736C55.7583 124.544 55.6666 124.364 55.5428 124.207C55.419 124.05 55.2654 123.919 55.091 123.821C54.9165 123.723 54.7245 123.661 54.526 123.638C54.3274 123.614 54.1262 123.63 53.9338 123.684C53.7414 123.739 53.5616 123.831 53.4046 123.954C53.2477 124.078 53.1167 124.232 53.0191 124.407H53.0191Z" fill="#E6E6E6"/>
<path d="M109.32 145.624C111.919 145.624 114.025 143.516 114.025 140.916C114.025 138.316 111.919 136.208 109.32 136.208C106.722 136.208 104.616 138.316 104.616 140.916C104.616 143.516 106.722 145.624 109.32 145.624Z" fill="#E6E6E6"/>
<path d="M112.642 25.1628C115.24 25.1628 117.347 23.0551 117.347 20.4551C117.347 17.8551 115.24 15.7474 112.642 15.7474C110.043 15.7474 107.937 17.8551 107.937 20.4551C107.937 23.0551 110.043 25.1628 112.642 25.1628Z" fill="#E6E6E6"/>
<path d="M76.9393 14.0859C79.5378 14.0859 81.6443 11.9782 81.6443 9.37821C81.6443 6.77823 79.5378 4.67053 76.9393 4.67053C74.3408 4.67053 72.2343 6.77823 72.2343 9.37821C72.2343 11.9782 74.3408 14.0859 76.9393 14.0859Z" fill="#E6E6E6"/>
<path d="M42.8975 24.6089C45.496 24.6089 47.6025 22.5012 47.6025 19.9012C47.6025 17.3013 45.496 15.1936 42.8975 15.1936C40.299 15.1936 38.1926 17.3013 38.1926 19.9012C38.1926 22.5012 40.299 24.6089 42.8975 24.6089Z" fill="#E6E6E6"/>
<path d="M45.9419 145.624C48.5404 145.624 50.6469 143.516 50.6469 140.916C50.6469 138.316 48.5404 136.208 45.9419 136.208C43.3435 136.208 41.237 138.316 41.237 140.916C41.237 143.516 43.3435 145.624 45.9419 145.624Z" fill="#E6E6E6"/>
<path d="M105.63 98.7799C105.815 99.0705 106.062 99.3168 106.353 99.5016C106.644 99.6864 106.972 99.8051 107.314 99.8494C107.655 99.8936 108.003 99.8624 108.331 99.7579C108.659 99.6533 108.961 99.478 109.214 99.2443L116.597 103.202L116.201 98.8655L109.251 95.7716C108.83 95.3719 108.278 95.1404 107.698 95.121C107.118 95.1016 106.551 95.2958 106.105 95.6666C105.659 96.0374 105.364 96.5591 105.276 97.1329C105.189 97.7068 105.314 98.2928 105.63 98.7799H105.63Z" fill="#FFB7B7"/>
<path d="M111.009 100.294L113.902 96.2976L127.84 102.89L145.184 99.634C146.041 99.4731 146.923 99.503 147.768 99.7216C148.612 99.9402 149.398 100.342 150.07 100.899C150.742 101.456 151.283 102.153 151.655 102.943C152.027 103.732 152.22 104.594 152.222 105.467C152.223 107.043 151.599 108.556 150.487 109.672C149.375 110.789 147.866 111.419 146.291 111.423L126.415 111.46L111.009 100.294Z" fill="#3F3D56"/>
<path d="M106.553 169.31L103.626 167.909L107.647 155.667L111.967 157.734L106.553 169.31Z" fill="#FFB7B7"/>
<path d="M126.177 167.336C125.964 167.47 125.752 167.601 125.537 167.732C125.109 167.995 124.677 168.253 124.244 168.507C124.027 168.634 123.808 168.76 123.591 168.885V168.892L123.578 168.894L123.574 168.896L123.242 168.978L122.767 167.721L122.548 167.143L122.238 166.323L121.671 164.824L118.682 156.928L123.328 155.781L123.503 156.494H123.505L123.591 156.846L125.214 163.434L125.545 164.781L125.556 164.821L125.756 165.626L125.928 166.323L126.119 167.102L126.177 167.336Z" fill="#FFB7B7"/>
<path d="M153.895 139.609C153.6 140.083 153.299 140.554 152.996 141.021C152.433 141.89 151.854 142.746 151.261 143.589C151.261 143.592 151.259 143.592 151.256 143.594C150.91 143.915 150.528 144.194 150.117 144.426C150.1 144.439 150.08 144.448 150.063 144.459C149.761 144.626 149.438 144.755 149.104 144.844C148.984 144.874 148.861 144.904 148.741 144.934C148.307 145.037 147.876 145.125 147.449 145.203C146.687 145.338 145.935 145.435 145.187 145.495C145.127 145.502 145.066 145.506 145.006 145.511C141.929 145.736 138.934 145.373 135.808 144.777C134.264 144.484 132.688 144.134 131.056 143.77C130.523 143.65 129.988 143.531 129.446 143.413C129.405 143.404 129.362 143.394 129.319 143.385C128.545 143.215 127.758 143.047 126.952 142.882C125.937 142.673 124.89 142.471 123.802 142.279L123.879 143.813C123.944 144.993 124.189 146.156 124.606 147.262C125.07 148.621 125.438 149.697 124.662 151.937L124.288 153.021C124.482 153.559 124.548 154.135 124.482 154.704C124.416 155.272 124.219 155.818 123.907 156.297L123.832 156.411L126.952 164.309L127.154 164.821H125.556L123.591 164.823H120.261L115.455 155.176L115.225 154.716V154.692L115.722 136.154C115.728 135.991 115.741 135.825 115.763 135.662C115.85 134.918 116.085 134.2 116.453 133.549C116.821 132.897 117.315 132.325 117.906 131.867C118.473 131.424 119.122 131.098 119.815 130.908C120.509 130.718 121.233 130.668 121.946 130.761L123.591 130.974L126.952 131.409L129.319 131.716L129.366 131.723L136.348 132.626L136.849 130.582L136.941 130.548L139.88 129.47L150.046 125.742L150.072 125.733L150.74 125.488L150.82 125.617C150.844 125.656 150.867 125.695 150.889 125.733C151.55 126.919 152.088 128.169 152.495 129.464C153.179 131.579 153.743 133.732 154.183 135.911C154.202 136.006 154.219 136.092 154.234 136.169L154.241 136.193C154.247 136.23 154.252 136.253 154.254 136.26C154.488 137.237 154.325 138.428 153.895 139.609Z" fill="#2F2E41"/>
<path d="M154.324 132.778C154.291 132.64 154.251 132.5 154.208 132.365C153.866 131.338 153.469 130.331 153.016 129.348C152.509 128.23 151.901 127.031 151.176 125.734C150.826 125.106 150.449 124.453 150.045 123.774C149.843 123.434 149.633 123.088 149.415 122.735C149.407 122.719 149.397 122.703 149.387 122.688L149.325 122.585L139.267 123.931L135.521 124.433L135.298 126.3L135.244 126.763C135.242 126.763 135.242 126.763 135.244 126.765L135.093 128.025V128.028L134.893 129.693L134.876 129.69L129.318 128.97L123.59 128.228L120.514 127.83C119.8 127.737 119.076 127.787 118.382 127.976C117.689 128.166 117.04 128.492 116.474 128.935C115.882 129.394 115.388 129.966 115.02 130.617C114.652 131.269 114.418 131.987 114.33 132.73C114.311 132.881 114.298 133.036 114.291 133.189L111.389 140.071C109.652 144.187 108.545 148.541 108.107 152.987L105.979 159.796L106.282 159.824L110.793 160.244L111.984 160.356L114.607 156.524C114.906 156.087 115.19 155.638 115.454 155.177C115.89 154.425 116.277 153.646 116.613 152.845L122.287 139.335C122.726 139.41 123.16 139.482 123.59 139.55C125.579 139.873 127.488 140.136 129.318 140.34C135.267 141.004 140.419 141.056 145.005 140.492C146.293 140.335 147.538 140.129 148.74 139.873C149.181 139.78 149.616 139.681 150.045 139.574C150.146 139.55 150.245 139.526 150.344 139.501C151.232 139.271 152.049 138.823 152.72 138.196C153.39 137.569 153.893 136.784 154.182 135.912C154.527 134.902 154.576 133.815 154.324 132.778Z" fill="#2F2E41"/>
<path d="M107.488 167.311L104.321 165.792L103.824 165.553L103.031 167.502L97.4924 168.722C97.2186 168.782 96.9711 168.928 96.7862 169.139C96.6012 169.35 96.4885 169.614 96.4645 169.894C96.4405 170.173 96.5064 170.453 96.6527 170.693C96.7989 170.932 97.0179 171.118 97.2774 171.224L102.689 173.434L104.407 171.887L103.986 173.963L106.024 174.795L108.258 167.681L107.488 167.311Z" fill="#2F2E41"/>
<path d="M126.952 164.309L127.154 164.821H126.952V164.309Z" fill="#2F2E41"/>
<path d="M125.849 164.93L122.53 166.081L122.009 166.261L122.816 168.204L119.738 172.97C119.586 173.206 119.513 173.484 119.53 173.764C119.547 174.044 119.653 174.311 119.832 174.527C120.012 174.742 120.255 174.895 120.527 174.962C120.8 175.029 121.086 175.007 121.345 174.9L126.744 172.66L126.877 170.351L128.038 172.123L130.072 171.279L126.656 164.651L125.849 164.93Z" fill="#2F2E41"/>
<path d="M153.496 135.895C153.299 135.894 153.105 135.846 152.931 135.754L135.419 126.598L135.216 125.77L134.835 123.147L134.84 123.122L136.506 115.439C136.475 115.373 136.411 115.265 136.339 115.143C135.596 113.882 133.333 110.046 137.652 104.764L145.234 95.9191L151.741 95.6389L151.815 95.7325C153.555 97.9177 154.729 100.499 155.231 103.248C155.734 105.996 155.55 108.826 154.696 111.486L154.019 123.731L154.745 126.204C155.17 127.657 155.1 129.21 154.546 130.619L154.712 134.623C154.719 134.787 154.692 134.951 154.634 135.104C154.576 135.258 154.487 135.398 154.374 135.517C154.26 135.636 154.124 135.73 153.973 135.795C153.823 135.86 153.66 135.894 153.496 135.895L153.496 135.895Z" fill="#3F3D56"/>
<path d="M138.306 145.993C138.602 145.817 138.857 145.579 139.052 145.295C139.246 145.01 139.376 144.686 139.432 144.346C139.489 144.006 139.469 143.658 139.376 143.326C139.283 142.994 139.119 142.686 138.894 142.425L143.104 135.18L138.759 135.425L135.427 142.267C135.013 142.674 134.763 143.218 134.723 143.798C134.683 144.377 134.858 144.95 135.213 145.409C135.567 145.869 136.078 146.182 136.648 146.289C137.218 146.397 137.808 146.291 138.306 145.993L138.306 145.993Z" fill="#FFB7B7"/>
<path d="M140.005 140.666L136.114 137.634L143.184 123.926L140.535 106.47C140.404 105.607 140.464 104.726 140.712 103.889C140.96 103.052 141.388 102.28 141.968 101.627C142.547 100.975 143.263 100.458 144.065 100.114C144.866 99.7695 145.733 99.6058 146.605 99.6345C148.18 99.6881 149.669 100.365 150.746 101.515C151.822 102.666 152.399 104.197 152.349 105.773L151.694 125.65L140.005 140.666Z" fill="#3F3D56"/>
<path d="M141.059 92.2439V85.8008C141.058 83.511 141.966 81.3145 143.583 79.6943C145.2 78.0741 147.394 77.1631 149.683 77.1617C151.971 77.1602 154.166 78.0684 155.786 79.6865C157.405 81.3045 158.315 83.4999 158.317 85.7897V85.8008C159.838 88.9717 158.886 90.4793 158.317 92.2439C158.316 92.5512 158.194 92.8457 157.977 93.063C157.76 93.2803 157.465 93.4026 157.158 93.4031H142.219C141.911 93.4028 141.617 93.2805 141.4 93.0632C141.182 92.8459 141.06 92.5513 141.059 92.2439Z" fill="#2F2E41"/>
<path d="M146.859 92.9844C150.426 92.9844 153.318 90.091 153.318 86.5219C153.318 82.9527 150.426 80.0593 146.859 80.0593C143.292 80.0593 140.4 82.9527 140.4 86.5219C140.4 90.091 143.292 92.9844 146.859 92.9844Z" fill="#FFB7B7"/>
<path d="M153.618 88.2161C153.56 88.2068 153.501 88.1945 153.443 88.1852C152.435 88.0064 151.428 87.8307 150.423 87.6488L150.331 85.3707L149.114 87.4114C146.338 88.3332 143.741 87.8122 141.298 86.6623C140.492 86.2795 139.71 85.8482 138.956 85.3707C139.161 84.1107 139.645 82.9126 140.373 81.8639C141.101 80.8153 142.053 79.9427 143.162 79.31C143.254 79.2575 143.343 79.2113 143.436 79.165C143.436 79.1651 143.437 79.165 143.437 79.1648C143.437 79.1647 143.438 79.1644 143.438 79.1642C143.438 79.1639 143.438 79.1635 143.439 79.1632C143.439 79.1628 143.439 79.1624 143.439 79.162C143.596 79.088 143.756 79.0171 143.916 78.9524C145.171 78.4619 146.538 78.3377 147.86 78.5942C149.182 78.8507 150.405 79.4773 151.385 80.4012C153.357 82.2848 154.244 85.3953 153.618 88.2161Z" fill="#2F2E41"/>
</g>
<defs>
<clipPath id="clip0_3_776">
<rect width="187" height="175" fill="white"/>
</clipPath>
</defs>
</svg>
